# AST/ASF file generated using VICON BodyLanguage
# -----------------------------------------------
:version 1.10
:name VICON
:units
  mass 1.0
  length 0.45
  angle deg
:documentation
   .ast/.asf automatically generated from VICON data using
   VICON BodyBuilder and BodyLanguage model FoxedUp or BRILLIANT.MOD
:root
   order TX TY TZ RX RY RZ
   axis XYZ
   position 0 0 0  
   orientation 0 0 0 
:bonedata
  begin
     id 1 
     name lhipjoint
     direction 0.677091 -0.635792 0.370561 
     length 2.74323 
     axis 0 0 0  XYZ
  end
  begin
     id 2 
     name lfemur
     direction 0.34202 -0.939693 0  
     length 7.44995  
     axis 0 0 20  XYZ
    dof rx ry rz
    limits (-160.0 20.0)
           (-70.0 70.0)
           (-60.0 70.0)
  end
  begin
     id 3 
     name ltibia
     direction 0.34202 -0.939693 0   
     length 7.34467   
     axis 0 0 20   XYZ
    dof rx
    limits (-10.0 170.0)
  end
  begin
     id 4 
     name lfoot
     direction 0.101953 -0.280114 0.954537   
     length 1.72105   
     axis -90 7.62852e-016 20   XYZ
    dof rx rz
    limits (-45.0 90.0)
           (-70.0 20.0)
  end
  begin
     id 5 
     name ltoes
     direction 1.53537e-011 -4.21915e-011 1   
     length 0.865872   
     axis -90 7.62852e-016 20   XYZ
    dof rx
    limits (-90.0 20.0)
  end
  begin
     id 6 
     name rhipjoint
     direction -0.695735 -0.620586 0.361699   
     length 2.81045  
     axis 0 0 0  XYZ 
  end
  begin
     id 7 
     name rfemur
     direction -0.34202 -0.939693 0   
     length 7.29387   
     axis 0 0 -20   XYZ
    dof rx ry rz
    limits (-160.0 20.0)
           (-70.0 70.0)
           (-70.0 60.0)
  end
  begin
     id 8 
     name rtibia
     direction -0.34202 -0.939693 0   
     length 7.44935   
     axis 0 0 -20   XYZ
    dof rx
    limits (-10.0 170.0)
 end
 begin
     id 9 
     name rfoot
     direction -0.104163 -0.286184 0.952496   
     length 1.77731  
     axis -90 -7.62852e-016 -20   XYZ
    dof rx rz
    limits (-45.0 90.0)
           (-20.0 70.0)
  end
  begin
     id 10 
     name rtoes
     direction -1.5355e-011 -4.21888e-011 1   
     length 0.892424   
     axis -90 -7.62852e-016 -20   XYZ
    dof rx
    limits (-90.0 20.0)
  end
  begin
     id 11 
     name lowerback
     direction 0.0100202 0.997226 -0.0737589   
     length 2.16892   
     axis 0 0 0   XYZ
    dof rx ry rz
    limits (-20.0 45.0)
           (-30.0 30.0)
           (-30.0 30.0)
  end
  begin
     id 12 
     name upperback
     direction 0.00432398 0.999988 -0.00215019   
     length 2.17326   
     axis 0 0 0   XYZ
    dof rx ry rz
    limits (-20.0 45.0)
           (-30.0 30.0)
           (-30.0 30.0)
  end
  begin
     id 13 
     name thorax
     direction -0.00195047 0.999485 0.0320434   
     length 2.18139   
     axis 0 0 0   XYZ
    dof rx ry rz
    limits (-20.0 45.0)
           (-30.0 30.0)
           (-30.0 30.0)
  end
  begin
     id 14 
     name lowerneck
     direction 0.00782762 0.986241 0.165128   
     length 1.88415   
     axis 0 0 0   XYZ
    dof rx ry rz
    limits (-20.0 45.0)
           (-30.0 30.0)
           (-30.0 30.0)
  end
  begin
     id 15 
     name upperneck
     direction 0.00988667 0.981098 -0.193258   
     length 1.9242   
     axis 0 0 0   XYZ
    dof rx ry rz
    limits (-20.0 45.0)
           (-30.0 30.0)
           (-30.0 30.0)
  end
  begin
     id 16
     name head
     direction 0.00252199 0.996513 -0.0833958  
     length 1.93887  
     axis 0 0 0   XYZ
    dof rx ry rz
    limits (-20.0 45.0)
           (-30.0 30.0)
           (-30.0 30.0)
  end
  begin
     id 17 
     name lclavicle
     direction 0.929492 0.368193 -0.0218667  
     length 3.5955  
     axis 0 0 0   XYZ
    dof ry rz
    limits (-20.0 10.0)
           (0.0 20.0)
  end
  begin
     id 18 
     name lhumerus
     direction 1 -4.48972e-011 1.41911e-027   
     length 5.2795   
     axis 180 -30 -90   XYZ
    dof rx ry rz
    limits (-60.0 90.0)
           (-90.0 90.0)
           (-90.0 90.0)
  end
  begin
     id 19
     name lradius
     direction 1 -4.48963e-011 7.05772e-027   
     length 3.53504   
     axis 180 -30 -90   XYZ
    dof rx
    limits (-10.0 170.0)
  end
  begin
     id 20
     name lwrist
     direction 1 -4.48957e-011 9.54866e-027   
     length 1.76752   
     axis -7.69462e-015 90 90   XYZ
    dof ry
    limits (-180.0 0.0)
 end
  begin
     id 21 
     name lhand
     direction 1 -4.48979e-011 1.90973e-026   
     length 0.667948   
     axis -1.21857e-014 90 90   XYZ
    dof rx rz
    limits (-90.0 90.0)
           (-45.0 45.0)
  end
  begin
     id 22 
     name lfingers
     direction 1 -4.48987e-011 3.81946e-026   
     length 0.538517   
     axis -2.43714e-014 90 90   XYZ
    dof rx
    limits (0.0 90.0)
  end
  begin
     id 23
     name lthumb
     direction 0.707107 -6.34962e-011 0.707107   
     length 0.773206   
     axis -90 45 2.85299e-015   XYZ
    dof rx rz
    limits (-45.0 45.0)
           (-45.0 45.0)
  end
  begin
     id 24 
     name rclavicle
     direction -0.898763 0.414256 -0.143584   
     length 3.5176  
     axis 0 0 0   XYZ 
    dof ry rz
    limits (-10.0 20.0)
           (-20.0 0.0)
  end
  begin
     id 25 
     name rhumerus
     direction -1 -4.48971e-011 1.129e-027  
     length 5.25035   
     axis 180 30 90   XYZ
    dof rx ry rz
    limits (-90.0 60.0)
           (-90.0 90.0)
           (-90.0 90.0)
  end
  begin
     id 26 
     name rradius
     direction -1 -4.48955e-011 6.34664e-027   
     length 3.58884   
     axis 180 30 90   XYZ
    dof rx
    limits (-10.0 170.0)
  end
  begin
     id 27 
     name rwrist
     direction -1 -4.48966e-011 9.54866e-027   
     length 1.79442   
     axis -7.69462e-015 -90 -90   XYZ
    dof ry
    limits (-180.0 0.0)
  end
  begin
     id 28
     name rhand
     direction -1 -4.48973e-011 1.90973e-026   
     length 0.779235   
     axis -1.21857e-014 -90 -90   XYZ
    dof rx rz
    limits (-90.0 90.0)
           (-45.0 45.0)
  end
  begin
     id 29
     name rfingers
     direction -1 -4.48984e-011 3.81946e-026   
     length 0.62824   
     axis -2.43714e-014 -90 -90   XYZ
    dof rx
    limits (0.0 90.0)
  end
  begin
     id 30
     name rthumb
     direction -0.707107 -6.34968e-011 0.707107   
     length 0.90203   
     axis -90 -45 -2.85299e-015   XYZ
    dof rx rz
    limits (-45.0 45.0)
           (-45.0 45.0)
  end
:hierarchy
  begin
    root lhipjoint rhipjoint lowerback
    lhipjoint lfemur
    lfemur ltibia
    ltibia lfoot
    lfoot ltoes
    rhipjoint rfemur
    rfemur rtibia
    rtibia rfoot
    rfoot rtoes
    lowerback upperback
    upperback thorax
    thorax lowerneck lclavicle rclavicle
    lowerneck upperneck
    upperneck head
    lclavicle lhumerus
    lhumerus lradius
    lradius lwrist
    lwrist lhand lthumb
    lhand lfingers
    rclavicle rhumerus
    rhumerus rradius
    rradius rwrist
    rwrist rhand rthumb
    rhand rfingers
  end

#!OML:ASF I:\Random Stuff\random\construction\7_22_03\Session 2\subj1.ASF
:FULLY-SPECIFIED
:DEGREES
247
root 5.344 17.8091 -6.19511 43.4092 -85.6317 -36.4307
lowerback 3.41629 0.693062 -3.57786
upperback -0.100777 0.736849 -1.28832
thorax -2.04837 0.391415 0.644383
lowerneck -19.4341 0.707524 -0.19325
upperneck 41.336 -3.51323 6.32547
head 19.3606 -1.06189 2.17441
rclavicle 4.17448e-015 -2.38542e-015
rhumerus -35.9838 32.6991 -95.0482
rradius 98.7028
rwrist -17.434
rhand -14.4555 37.7205
rfingers 7.12502
rthumb 11.6899 8.06665
lclavicle 4.17448e-015 -2.38542e-015
lhumerus 7.57792 -60.2967 68.1287
lradius 104.854
lwrist -9.29577
lhand -7.72586 37.1901
lfingers 7.12502
lthumb 18.1726 66.3612
rfemur -7.6473 7.6903 18.2321
rtibia 14.6694
rfoot -9.03214 -3.59199
rtoes -8.18976
lfemur -15.3451 -4.79565 -16.4947
ltibia 20.9859
lfoot -12.3321 9.66686
ltoes -23.7934
248
root 5.34148 17.8109 -6.15972 45.8704 -85.9959 -38.9372
lowerback 3.44628 0.736131 -3.7901
upperback -0.0909848 0.779866 -1.39333
thorax -2.05842 0.413543 0.652592
lowerneck -19.3813 0.593315 -0.323547
upperneck 41.2554 -3.68429 6.43232
head 19.3128 -1.13863 2.20911
rclavicle 7.7526e-015 1.74931e-014
rhumerus -36.1139 33.1804 -95.3963
rradius 98.6194
rwrist -17.6079
rhand -15.7088 38.3166
rfingers 7.12502
rthumb 10.481 8.59784
lclavicle 7.7526e-015 1.74931e-014
lhumerus 9.41273 -60.5681 66.476
lradius 105.141
lwrist -9.18056
lhand -5.90552 37.4822
lfingers 7.12502
lthumb 19.9232 66.4809
rfemur -8.11137 7.13618 18.1768
rtibia 15.5574
rfoot -9.25512 -3.63446
rtoes -7.12693
lfemur -15.1812 -4.68433 -16.7384
ltibia 20.9688
lfoot -12.4182 9.91833
ltoes -23.4478
249
root 5.32808 17.8119 -6.12619 47.1642 -86.3646 -40.3224
lowerback 3.34091 0.761754 -4.08689
upperback -0.0122003 0.806219 -1.47685
thorax -1.92249 0.425088 0.733305
lowerneck -19.2819 0.522891 -0.463952
upperneck 41.1643 -3.77001 6.52245
head 19.2388 -1.18619 2.25507
rclavicle 3.77691e-015 2.14687e-014
rhumerus -36.0124 33.5696 -95.5998
rradius 98.4247
rwrist -18.004
rhand -16.4799 38.6915
rfingers 7.12502
rthumb 9.73718 8.93662
lclavicle 3.77691e-015 2.14687e-014
lhumerus 11.5719 -61.0197 64.4053
lradius 105.375
lwrist -8.54471
lhand -4.91323 37.6901
lfingers 7.12502
lthumb 20.8768 66.5868
rfemur -8.35795 6.58556 18.0159
rtibia 16.26
rfoot -9.51725 -3.55508
rtoes -6.88473
lfemur -14.9065 -4.57159 -17.096
ltibia 20.922
lfoot -12.506 10.127
ltoes -23.4603
250
root 5.33144 17.8129 -6.10108 51.8147 -86.4552 -44.9424
lowerback 3.34404 0.781328 -4.06463
upperback -0.0211837 0.833287 -1.46038
thorax -1.93456 0.438875 0.736282
lowerneck -19.2475 0.437456 -0.587069
upperneck 41.0888 -3.8665 6.56869
head 19.1921 -1.23887 2.27561
rclavicle 8.34896e-015 0
rhumerus -35.9091 33.757 -95.7326
rradius 98.3885
rwrist -18.1789
rhand -17.041 38.9088
rfingers 7.12502
rthumb 9.19574 9.12928
lclavicle 8.34896e-015 0
lhumerus 13.8412 -61.6754 62.1059
lradius 105.504
lwrist -6.95484
lhand -5.67474 38.1934
lfingers 7.12502
lthumb 20.145 67.1689
rfemur -8.74867 6.50288 18.1787
rtibia 16.7659
rfoot -9.69455 -3.71764
rtoes -6.26529
lfemur -14.896 -4.53777 -17.0216
ltibia 20.8964
lfoot -12.4881 10.3588
ltoes -23.3042
251
root 5.33168 17.8152 -6.08141 54.7524 -86.476 -47.9153
lowerback 3.40262 0.785366 -4.02062
upperback -0.0199812 0.836968 -1.46751
thorax -1.96559 0.440692 0.703401
lowerneck -19.2522 0.34979 -0.643918
upperneck 41.0731 -3.97874 6.55796
head 19.1922 -1.29487 2.2555
rclavicle 6.95746e-015 -1.51076e-014
rhumerus -35.9935 33.7809 -95.9135
rradius 98.5918
rwrist -17.8173
rhand -18.1319 39.3442
rfingers 7.12502
rthumb 8.14304 9.5211
lclavicle 6.95746e-015 -1.51076e-014
lhumerus 15.2922 -62.1715 60.5648
lradius 105.559
lwrist -5.20408
lhand -6.48596 38.6965
lfingers 7.12502
lthumb 19.3651 67.7523
rfemur -8.97755 6.5579 18.2803
rtibia 17.0823
rfoot -9.93088 -3.92721
rtoes -5.96279
lfemur -14.8327 -4.60757 -16.9699
ltibia 20.9079
lfoot -12.5085 10.5661
ltoes -22.9949
252
root 5.32961 17.8168 -6.06571 56.8679 -86.453 -50.0848
lowerback 3.47053 0.752727 -3.96316
upperback -0.00612132 0.793079 -1.45345
thorax -1.98693 0.418594 0.68729
lowerneck -19.2451 0.378601 -0.618641
upperneck 41.0055 -3.90149 6.4961
head 19.1382 -1.268 2.23425
rclavicle -1.35174e-014 -2.06736e-014
rhumerus -36.0906 33.8448 -96.0959
rradius 98.7926
rwrist -17.2076
rhand -19.7076 39.9169
rfingers 7.12502
rthumb 6.62212 10.0405
lclavicle -1.35174e-014 -2.06736e-014
lhumerus 16.0853 -62.4863 59.6711
lradius 105.596
lwrist -3.49807
lhand -7.26528 39.0663
lfingers 7.12502
lthumb 18.6157 68.1956
rfemur -9.07585 6.70458 18.3574
rtibia 17.1673
rfoot -10.2018 -4.10157
rtoes -6.17331
lfemur -14.7738 -4.66807 -16.9154
ltibia 20.9609
lfoot -12.56 10.7304
ltoes -22.993
253
root 5.3282 17.8162 -6.05252 57.9513 -86.4409 -51.1453
lowerback 3.47879 0.67637 -3.95302
upperback -0.00598546 0.692871 -1.41129
thorax -1.98763 0.369036 0.730137
lowerneck -19.2621 0.46747 -0.57574
upperneck 40.8571 -3.6781 6.35531
head 19.0258 -1.18734 2.20026
rclavicle 3.77691e-015 -2.70347e-014
rhumerus -36.1277 33.9319 -96.1833
rradius 98.9966
rwrist -16.7068
rhand -20.9642 40.2547
rfingers 7.12502
rthumb 5.40887 10.3437
lclavicle 3.77691e-015 -2.70347e-014
lhumerus 16.6634 -62.7351 58.9781
lradius 105.648
lwrist -1.73977
lhand -8.56282 39.3228
lfingers 7.12502
lthumb 17.3672 68.5669
rfemur -9.19352 6.85695 18.3441
rtibia 17.0441
rfoot -10.4822 -4.13417
rtoes -6.52094
lfemur -14.7837 -4.79169 -16.8992
ltibia 20.9564
lfoot -12.5786 10.9222
ltoes -22.9885
254
root 5.32343 17.8192 -6.04301 57.7665 -86.3763 -50.8986
lowerback 3.4251 0.565332 -3.93793
upperback -0.0192457 0.550666 -1.34241
thorax -1.96562 0.298668 0.800375
lowerneck -19.2887 0.529597 -0.561015
upperneck 40.7612 -3.48181 6.18073
head 18.9511 -1.12768 2.15135
rclavicle 5.96354e-016 1.59028e-014
rhumerus -36.1565 33.8963 -96.1671
rradius 99.3225
rwrist -16.5115
rhand -21.2164 40.1285
rfingers 7.12502
rthumb 5.16539 10.2115
lclavicle 5.96354e-016 1.59028e-014
lhumerus 16.7569 -62.8509 58.7485
lradius 105.789
lwrist -0.423387
lhand -9.64841 39.6315
lfingers 7.12502
lthumb 16.3222 68.9646
rfemur -9.23891 7.09212 18.2923
rtibia 16.6623
rfoot -10.8484 -4.17068
rtoes -6.25281
lfemur -14.841 -4.97676 -16.8715
ltibia 20.9611
lfoot -12.6118 11.0499
ltoes -22.7551
255
root 5.31469 17.8256 -6.03769 57.6306 -86.2125 -50.7104
lowerback 3.36101 0.462001 -3.80344
upperback -0.0508528 0.42395 -1.2685
thorax -1.9561 0.235511 0.807958
lowerneck -19.2381 0.539804 -0.555048
upperneck 40.6487 -3.39535 6.069
head 18.8563 -1.10655 2.10992
rclavicle 5.36719e-015 0
rhumerus -36.1153 33.6785 -96.0651
rradius 99.6517
rwrist -16.669
rhand -20.6797 40.0736
rfingers 7.12502
rthumb 5.68361 10.1698
lclavicle 5.36719e-015 0
lhumerus 16.417 -63.0944 58.8585
lradius 105.79
lwrist -0.723341
lhand -11.4839 40.527
lfingers 7.12502
lthumb 14.5543 69.9964
rfemur -9.10574 7.54043 18.2912
rtibia 15.9657
rfoot -11.3213 -4.4162
rtoes -4.70496
lfemur -14.9072 -5.11187 -16.7478
ltibia 21.0159
lfoot -12.66 11.0888
ltoes -22.8002
